<svg xmlns="http://www.w3.org/2000/svg" xmlns:xlink="http://www.w3.org/1999/xlink" contentStyleType="text/css" data-diagram-type="SALT" height="1567px" preserveAspectRatio="none" style="width:399px;height:1567px;background:#FFFFFF;" version="1.1" viewBox="0 0 399 1567" width="399px" zoomAndPan="magnify"><?plantuml 1.2026.5?><defs/><g><text fill="#000000" font-family="sans-serif" font-size="12" lengthAdjust="spacing" textLength="268.7109" x="16" y="18.457">Street Fighter 6 - A.K.I. &#36890;&#24120;&#25216;&#21029;&#12465;&#12540;&#12473;&#25972;&#29702; - &#24375;&#25216;</text><text fill="#000000" font-family="sans-serif" font-size="12" lengthAdjust="spacing" textLength="192.0469" x="26" y="33.5508">&#12501;&#12524;&#12540;&#12512;&#35443;&#32048;: data/aki_normals.yml</text><text fill="#000000" font-family="sans-serif" font-size="12" lengthAdjust="spacing" textLength="181.418" x="26" y="48.6445">&#21442;&#29031;&#20803;: sf6-frame.app 2026-05-28</text><text fill="#000000" font-family="sans-serif" font-size="12" lengthAdjust="spacing" textLength="70.6816" x="26" y="63.7383">5HP &#31435;&#12385;&#24375;P</text><text fill="#000000" font-family="sans-serif" font-size="12" lengthAdjust="spacing" textLength="159.3926" x="36" y="78.832">&#30330;&#29983; 12 / &#25345;&#32154; 12-14 / &#30828;&#30452; 21</text><text fill="#000000" font-family="sans-serif" font-size="12" lengthAdjust="spacing" textLength="36" x="36" y="93.9258">&#31354;&#25391;&#12426;</text><text fill="#000000" font-family="sans-serif" font-size="12" lengthAdjust="spacing" textLength="238.6641" x="46" y="109.0195">&#24046;&#12375;&#36820;&#12375;&#38291;&#21512;&#12356;&#12392;&#27425;&#22238;&#12398;&#25391;&#12426;&#26041;&#12434;TODO&#30906;&#35469;</text><text fill="#000000" font-family="sans-serif" font-size="12" lengthAdjust="spacing" textLength="108" x="46" y="124.1133">&#22823;&#12365;&#12394;&#24046;&#12375;&#36820;&#12375;&#35686;&#25106;</text><text fill="#000000" font-family="sans-serif" font-size="12" lengthAdjust="spacing" textLength="72" x="36" y="139.207">&#12460;&#12540;&#12489;&#12373;&#12379;&#12383;</text><text fill="#000000" font-family="sans-serif" font-size="12" lengthAdjust="spacing" textLength="24" x="46" y="154.3008">&#23494;&#30528;</text><text fill="#000000" font-family="sans-serif" font-size="12" lengthAdjust="spacing" textLength="62.0039" x="56" y="169.3945">&#12460;&#12540;&#12489;&#26178; -4</text><text fill="#000000" font-family="sans-serif" font-size="12" lengthAdjust="spacing" textLength="334.6641" x="56" y="184.4883">&#23494;&#30528;&#12460;&#12540;&#12489;&#26178;&#12398;&#25237;&#12370;&#38291;&#21512;&#12356;&#12539;&#26292;&#12428;&#28528;&#12375;&#12539;&#30906;&#21453;&#26377;&#28961;&#12434;TODO&#30906;&#35469;</text><text fill="#000000" font-family="sans-serif" font-size="12" lengthAdjust="spacing" textLength="24" x="46" y="199.582">&#20013;&#38291;</text><text fill="#000000" font-family="sans-serif" font-size="12" lengthAdjust="spacing" textLength="62.0039" x="56" y="214.6758">&#12460;&#12540;&#12489;&#26178; -4</text><text fill="#000000" font-family="sans-serif" font-size="12" lengthAdjust="spacing" textLength="322.6641" x="56" y="229.7695">&#20013;&#38291;&#36317;&#38626;&#12460;&#12540;&#12489;&#26178;&#12398;&#32153;&#32154;&#21487;&#21542;&#12392;&#24046;&#12375;&#36820;&#12375;&#12522;&#12473;&#12463;&#12434;TODO&#30906;&#35469;</text><text fill="#000000" font-family="sans-serif" font-size="12" lengthAdjust="spacing" textLength="24" x="46" y="244.8633">&#20808;&#31471;</text><text fill="#000000" font-family="sans-serif" font-size="12" lengthAdjust="spacing" textLength="62.0039" x="56" y="259.957">&#12460;&#12540;&#12489;&#26178; -4</text><text fill="#000000" font-family="sans-serif" font-size="12" lengthAdjust="spacing" textLength="262.6641" x="56" y="275.0508">&#20808;&#31471;&#12460;&#12540;&#12489;&#26178;&#12398;&#23433;&#20840;&#24230;&#12392;&#27425;&#12398;&#32622;&#12365;&#25216;&#12434;TODO&#30906;&#35469;</text><text fill="#000000" font-family="sans-serif" font-size="12" lengthAdjust="spacing" textLength="36" x="36" y="290.1445">&#12498;&#12483;&#12488;</text><text fill="#000000" font-family="sans-serif" font-size="12" lengthAdjust="spacing" textLength="24" x="46" y="305.2383">&#23494;&#30528;</text><text fill="#000000" font-family="sans-serif" font-size="12" lengthAdjust="spacing" textLength="58.0078" x="56" y="320.332">&#12498;&#12483;&#12488;&#26178; 1</text><text fill="#000000" font-family="sans-serif" font-size="12" lengthAdjust="spacing" textLength="298.6641" x="56" y="335.4258">&#23494;&#30528;&#12498;&#12483;&#12488;&#26178;&#12398;&#12467;&#12531;&#12508;&#12539;&#25237;&#12370;&#25246;&#12539;&#36215;&#12365;&#25915;&#12417;&#12434;TODO&#30906;&#35469;</text><text fill="#000000" font-family="sans-serif" font-size="12" lengthAdjust="spacing" textLength="24" x="46" y="350.5195">&#20013;&#38291;</text><text fill="#000000" font-family="sans-serif" font-size="12" lengthAdjust="spacing" textLength="58.0078" x="56" y="365.6133">&#12498;&#12483;&#12488;&#26178; 1</text><text fill="#000000" font-family="sans-serif" font-size="12" lengthAdjust="spacing" textLength="298.6641" x="56" y="380.707">&#20013;&#38291;&#36317;&#38626;&#12498;&#12483;&#12488;&#26178;&#12398;&#36899;&#20418;&#12539;&#12461;&#12515;&#12531;&#12475;&#12523;&#21487;&#21542;&#12434;TODO&#30906;&#35469;</text><text fill="#000000" font-family="sans-serif" font-size="12" lengthAdjust="spacing" textLength="24" x="46" y="395.8008">&#20808;&#31471;</text><text fill="#000000" font-family="sans-serif" font-size="12" lengthAdjust="spacing" textLength="58.0078" x="56" y="410.8945">&#12498;&#12483;&#12488;&#26178; 1</text><text fill="#000000" font-family="sans-serif" font-size="12" lengthAdjust="spacing" textLength="262.6641" x="56" y="425.9883">&#20808;&#31471;&#12498;&#12483;&#12488;&#26178;&#12398;&#36861;&#25731;&#21487;&#21542;&#12392;&#36317;&#38626;&#35519;&#25972;&#12434;TODO&#30906;&#35469;</text><text fill="#000000" font-family="sans-serif" font-size="12" lengthAdjust="spacing" textLength="94.6816" x="26" y="441.082">2HP &#12375;&#12419;&#12364;&#12415;&#24375;P</text><text fill="#000000" font-family="sans-serif" font-size="12" lengthAdjust="spacing" textLength="159.3926" x="36" y="456.1758">&#30330;&#29983; 10 / &#25345;&#32154; 10-12 / &#30828;&#30452; 28</text><text fill="#000000" font-family="sans-serif" font-size="12" lengthAdjust="spacing" textLength="36" x="36" y="471.2695">&#31354;&#25391;&#12426;</text><text fill="#000000" font-family="sans-serif" font-size="12" lengthAdjust="spacing" textLength="238.6641" x="46" y="486.3633">&#24046;&#12375;&#36820;&#12375;&#38291;&#21512;&#12356;&#12392;&#27425;&#22238;&#12398;&#25391;&#12426;&#26041;&#12434;TODO&#30906;&#35469;</text><text fill="#000000" font-family="sans-serif" font-size="12" lengthAdjust="spacing" textLength="84" x="46" y="501.457">&#22823;&#12365;&#12394;&#38553;&#12395;&#27880;&#24847;</text><text fill="#000000" font-family="sans-serif" font-size="12" lengthAdjust="spacing" textLength="72" x="36" y="516.5508">&#12460;&#12540;&#12489;&#12373;&#12379;&#12383;</text><text fill="#000000" font-family="sans-serif" font-size="12" lengthAdjust="spacing" textLength="24" x="46" y="531.6445">&#23494;&#30528;</text><text fill="#000000" font-family="sans-serif" font-size="12" lengthAdjust="spacing" textLength="62.0039" x="56" y="546.7383">&#12460;&#12540;&#12489;&#26178; -8</text><text fill="#000000" font-family="sans-serif" font-size="12" lengthAdjust="spacing" textLength="334.6641" x="56" y="561.832">&#23494;&#30528;&#12460;&#12540;&#12489;&#26178;&#12398;&#25237;&#12370;&#38291;&#21512;&#12356;&#12539;&#26292;&#12428;&#28528;&#12375;&#12539;&#30906;&#21453;&#26377;&#28961;&#12434;TODO&#30906;&#35469;</text><text fill="#000000" font-family="sans-serif" font-size="12" lengthAdjust="spacing" textLength="24" x="46" y="576.9258">&#20013;&#38291;</text><text fill="#000000" font-family="sans-serif" font-size="12" lengthAdjust="spacing" textLength="62.0039" x="56" y="592.0195">&#12460;&#12540;&#12489;&#26178; -8</text><text fill="#000000" font-family="sans-serif" font-size="12" lengthAdjust="spacing" textLength="322.6641" x="56" y="607.1133">&#20013;&#38291;&#36317;&#38626;&#12460;&#12540;&#12489;&#26178;&#12398;&#32153;&#32154;&#21487;&#21542;&#12392;&#24046;&#12375;&#36820;&#12375;&#12522;&#12473;&#12463;&#12434;TODO&#30906;&#35469;</text><text fill="#000000" font-family="sans-serif" font-size="12" lengthAdjust="spacing" textLength="24" x="46" y="622.207">&#20808;&#31471;</text><text fill="#000000" font-family="sans-serif" font-size="12" lengthAdjust="spacing" textLength="62.0039" x="56" y="637.3008">&#12460;&#12540;&#12489;&#26178; -8</text><text fill="#000000" font-family="sans-serif" font-size="12" lengthAdjust="spacing" textLength="262.6641" x="56" y="652.3945">&#20808;&#31471;&#12460;&#12540;&#12489;&#26178;&#12398;&#23433;&#20840;&#24230;&#12392;&#27425;&#12398;&#32622;&#12365;&#25216;&#12434;TODO&#30906;&#35469;</text><text fill="#000000" font-family="sans-serif" font-size="12" lengthAdjust="spacing" textLength="36" x="36" y="667.4883">&#12498;&#12483;&#12488;</text><text fill="#000000" font-family="sans-serif" font-size="12" lengthAdjust="spacing" textLength="24" x="46" y="682.582">&#23494;&#30528;</text><text fill="#000000" font-family="sans-serif" font-size="12" lengthAdjust="spacing" textLength="60" x="56" y="697.6758">&#12498;&#12483;&#12488;&#26178; D</text><text fill="#000000" font-family="sans-serif" font-size="12" lengthAdjust="spacing" textLength="298.6641" x="56" y="712.7695">&#23494;&#30528;&#12498;&#12483;&#12488;&#26178;&#12398;&#12467;&#12531;&#12508;&#12539;&#25237;&#12370;&#25246;&#12539;&#36215;&#12365;&#25915;&#12417;&#12434;TODO&#30906;&#35469;</text><text fill="#000000" font-family="sans-serif" font-size="12" lengthAdjust="spacing" textLength="24" x="46" y="727.8633">&#20013;&#38291;</text><text fill="#000000" font-family="sans-serif" font-size="12" lengthAdjust="spacing" textLength="60" x="56" y="742.957">&#12498;&#12483;&#12488;&#26178; D</text><text fill="#000000" font-family="sans-serif" font-size="12" lengthAdjust="spacing" textLength="298.6641" x="56" y="758.0508">&#20013;&#38291;&#36317;&#38626;&#12498;&#12483;&#12488;&#26178;&#12398;&#36899;&#20418;&#12539;&#12461;&#12515;&#12531;&#12475;&#12523;&#21487;&#21542;&#12434;TODO&#30906;&#35469;</text><text fill="#000000" font-family="sans-serif" font-size="12" lengthAdjust="spacing" textLength="24" x="46" y="773.1445">&#20808;&#31471;</text><text fill="#000000" font-family="sans-serif" font-size="12" lengthAdjust="spacing" textLength="60" x="56" y="788.2383">&#12498;&#12483;&#12488;&#26178; D</text><text fill="#000000" font-family="sans-serif" font-size="12" lengthAdjust="spacing" textLength="262.6641" x="56" y="803.332">&#20808;&#31471;&#12498;&#12483;&#12488;&#26178;&#12398;&#36861;&#25731;&#21487;&#21542;&#12392;&#36317;&#38626;&#35519;&#25972;&#12434;TODO&#30906;&#35469;</text><text fill="#000000" font-family="sans-serif" font-size="12" lengthAdjust="spacing" textLength="70.6816" x="26" y="818.4258">5HK &#31435;&#12385;&#24375;K</text><text fill="#000000" font-family="sans-serif" font-size="12" lengthAdjust="spacing" textLength="146.0449" x="36" y="833.5195">&#30330;&#29983; 9 / &#25345;&#32154; 9-12 / &#30828;&#30452; 19</text><text fill="#000000" font-family="sans-serif" font-size="12" lengthAdjust="spacing" textLength="36" x="36" y="848.6133">&#31354;&#25391;&#12426;</text><text fill="#000000" font-family="sans-serif" font-size="12" lengthAdjust="spacing" textLength="238.6641" x="46" y="863.707">&#24046;&#12375;&#36820;&#12375;&#38291;&#21512;&#12356;&#12392;&#27425;&#22238;&#12398;&#25391;&#12426;&#26041;&#12434;TODO&#30906;&#35469;</text><text fill="#000000" font-family="sans-serif" font-size="12" lengthAdjust="spacing" textLength="72" x="46" y="878.8008">&#24046;&#12375;&#36820;&#12375;&#35686;&#25106;</text><text fill="#000000" font-family="sans-serif" font-size="12" lengthAdjust="spacing" textLength="72" x="36" y="893.8945">&#12460;&#12540;&#12489;&#12373;&#12379;&#12383;</text><text fill="#000000" font-family="sans-serif" font-size="12" lengthAdjust="spacing" textLength="24" x="46" y="908.9883">&#23494;&#30528;</text><text fill="#000000" font-family="sans-serif" font-size="12" lengthAdjust="spacing" textLength="62.0039" x="56" y="924.082">&#12460;&#12540;&#12489;&#26178; -3</text><text fill="#000000" font-family="sans-serif" font-size="12" lengthAdjust="spacing" textLength="334.6641" x="56" y="939.1758">&#23494;&#30528;&#12460;&#12540;&#12489;&#26178;&#12398;&#25237;&#12370;&#38291;&#21512;&#12356;&#12539;&#26292;&#12428;&#28528;&#12375;&#12539;&#30906;&#21453;&#26377;&#28961;&#12434;TODO&#30906;&#35469;</text><text fill="#000000" font-family="sans-serif" font-size="12" lengthAdjust="spacing" textLength="24" x="46" y="954.2695">&#20013;&#38291;</text><text fill="#000000" font-family="sans-serif" font-size="12" lengthAdjust="spacing" textLength="62.0039" x="56" y="969.3633">&#12460;&#12540;&#12489;&#26178; -3</text><text fill="#000000" font-family="sans-serif" font-size="12" lengthAdjust="spacing" textLength="322.6641" x="56" y="984.457">&#20013;&#38291;&#36317;&#38626;&#12460;&#12540;&#12489;&#26178;&#12398;&#32153;&#32154;&#21487;&#21542;&#12392;&#24046;&#12375;&#36820;&#12375;&#12522;&#12473;&#12463;&#12434;TODO&#30906;&#35469;</text><text fill="#000000" font-family="sans-serif" font-size="12" lengthAdjust="spacing" textLength="24" x="46" y="999.5508">&#20808;&#31471;</text><text fill="#000000" font-family="sans-serif" font-size="12" lengthAdjust="spacing" textLength="62.0039" x="56" y="1014.6445">&#12460;&#12540;&#12489;&#26178; -3</text><text fill="#000000" font-family="sans-serif" font-size="12" lengthAdjust="spacing" textLength="262.6641" x="56" y="1029.7383">&#20808;&#31471;&#12460;&#12540;&#12489;&#26178;&#12398;&#23433;&#20840;&#24230;&#12392;&#27425;&#12398;&#32622;&#12365;&#25216;&#12434;TODO&#30906;&#35469;</text><text fill="#000000" font-family="sans-serif" font-size="12" lengthAdjust="spacing" textLength="36" x="36" y="1044.832">&#12498;&#12483;&#12488;</text><text fill="#000000" font-family="sans-serif" font-size="12" lengthAdjust="spacing" textLength="24" x="46" y="1059.9258">&#23494;&#30528;</text><text fill="#000000" font-family="sans-serif" font-size="12" lengthAdjust="spacing" textLength="58.0078" x="56" y="1075.0195">&#12498;&#12483;&#12488;&#26178; 4</text><text fill="#000000" font-family="sans-serif" font-size="12" lengthAdjust="spacing" textLength="298.6641" x="56" y="1090.1133">&#23494;&#30528;&#12498;&#12483;&#12488;&#26178;&#12398;&#12467;&#12531;&#12508;&#12539;&#25237;&#12370;&#25246;&#12539;&#36215;&#12365;&#25915;&#12417;&#12434;TODO&#30906;&#35469;</text><text fill="#000000" font-family="sans-serif" font-size="12" lengthAdjust="spacing" textLength="24" x="46" y="1105.207">&#20013;&#38291;</text><text fill="#000000" font-family="sans-serif" font-size="12" lengthAdjust="spacing" textLength="58.0078" x="56" y="1120.3008">&#12498;&#12483;&#12488;&#26178; 4</text><text fill="#000000" font-family="sans-serif" font-size="12" lengthAdjust="spacing" textLength="298.6641" x="56" y="1135.3945">&#20013;&#38291;&#36317;&#38626;&#12498;&#12483;&#12488;&#26178;&#12398;&#36899;&#20418;&#12539;&#12461;&#12515;&#12531;&#12475;&#12523;&#21487;&#21542;&#12434;TODO&#30906;&#35469;</text><text fill="#000000" font-family="sans-serif" font-size="12" lengthAdjust="spacing" textLength="24" x="46" y="1150.4883">&#20808;&#31471;</text><text fill="#000000" font-family="sans-serif" font-size="12" lengthAdjust="spacing" textLength="58.0078" x="56" y="1165.582">&#12498;&#12483;&#12488;&#26178; 4</text><text fill="#000000" font-family="sans-serif" font-size="12" lengthAdjust="spacing" textLength="262.6641" x="56" y="1180.6758">&#20808;&#31471;&#12498;&#12483;&#12488;&#26178;&#12398;&#36861;&#25731;&#21487;&#21542;&#12392;&#36317;&#38626;&#35519;&#25972;&#12434;TODO&#30906;&#35469;</text><text fill="#000000" font-family="sans-serif" font-size="12" lengthAdjust="spacing" textLength="94.6816" x="26" y="1195.7695">2HK &#12375;&#12419;&#12364;&#12415;&#24375;K</text><text fill="#000000" font-family="sans-serif" font-size="12" lengthAdjust="spacing" textLength="159.3926" x="36" y="1210.8633">&#30330;&#29983; 10 / &#25345;&#32154; 10-15 / &#30828;&#30452; 20</text><text fill="#000000" font-family="sans-serif" font-size="12" lengthAdjust="spacing" textLength="36" x="36" y="1225.957">&#31354;&#25391;&#12426;</text><text fill="#000000" font-family="sans-serif" font-size="12" lengthAdjust="spacing" textLength="238.6641" x="46" y="1241.0508">&#24046;&#12375;&#36820;&#12375;&#38291;&#21512;&#12356;&#12392;&#27425;&#22238;&#12398;&#25391;&#12426;&#26041;&#12434;TODO&#30906;&#35469;</text><text fill="#000000" font-family="sans-serif" font-size="12" lengthAdjust="spacing" textLength="84" x="46" y="1256.1445">&#22823;&#12365;&#12394;&#38553;&#12395;&#27880;&#24847;</text><text fill="#000000" font-family="sans-serif" font-size="12" lengthAdjust="spacing" textLength="72" x="36" y="1271.2383">&#12460;&#12540;&#12489;&#12373;&#12379;&#12383;</text><text fill="#000000" font-family="sans-serif" font-size="12" lengthAdjust="spacing" textLength="24" x="46" y="1286.332">&#23494;&#30528;</text><text fill="#000000" font-family="sans-serif" font-size="12" lengthAdjust="spacing" textLength="62.0039" x="56" y="1301.4258">&#12460;&#12540;&#12489;&#26178; -3</text><text fill="#000000" font-family="sans-serif" font-size="12" lengthAdjust="spacing" textLength="334.6641" x="56" y="1316.5195">&#23494;&#30528;&#12460;&#12540;&#12489;&#26178;&#12398;&#25237;&#12370;&#38291;&#21512;&#12356;&#12539;&#26292;&#12428;&#28528;&#12375;&#12539;&#30906;&#21453;&#26377;&#28961;&#12434;TODO&#30906;&#35469;</text><text fill="#000000" font-family="sans-serif" font-size="12" lengthAdjust="spacing" textLength="24" x="46" y="1331.6133">&#20013;&#38291;</text><text fill="#000000" font-family="sans-serif" font-size="12" lengthAdjust="spacing" textLength="62.0039" x="56" y="1346.707">&#12460;&#12540;&#12489;&#26178; -3</text><text fill="#000000" font-family="sans-serif" font-size="12" lengthAdjust="spacing" textLength="322.6641" x="56" y="1361.8008">&#20013;&#38291;&#36317;&#38626;&#12460;&#12540;&#12489;&#26178;&#12398;&#32153;&#32154;&#21487;&#21542;&#12392;&#24046;&#12375;&#36820;&#12375;&#12522;&#12473;&#12463;&#12434;TODO&#30906;&#35469;</text><text fill="#000000" font-family="sans-serif" font-size="12" lengthAdjust="spacing" textLength="24" x="46" y="1376.8945">&#20808;&#31471;</text><text fill="#000000" font-family="sans-serif" font-size="12" lengthAdjust="spacing" textLength="62.0039" x="56" y="1391.9883">&#12460;&#12540;&#12489;&#26178; -3</text><text fill="#000000" font-family="sans-serif" font-size="12" lengthAdjust="spacing" textLength="262.6641" x="56" y="1407.082">&#20808;&#31471;&#12460;&#12540;&#12489;&#26178;&#12398;&#23433;&#20840;&#24230;&#12392;&#27425;&#12398;&#32622;&#12365;&#25216;&#12434;TODO&#30906;&#35469;</text><text fill="#000000" font-family="sans-serif" font-size="12" lengthAdjust="spacing" textLength="36" x="36" y="1422.1758">&#12498;&#12483;&#12488;</text><text fill="#000000" font-family="sans-serif" font-size="12" lengthAdjust="spacing" textLength="24" x="46" y="1437.2695">&#23494;&#30528;</text><text fill="#000000" font-family="sans-serif" font-size="12" lengthAdjust="spacing" textLength="58.0078" x="56" y="1452.3633">&#12498;&#12483;&#12488;&#26178; 0</text><text fill="#000000" font-family="sans-serif" font-size="12" lengthAdjust="spacing" textLength="298.6641" x="56" y="1467.457">&#23494;&#30528;&#12498;&#12483;&#12488;&#26178;&#12398;&#12467;&#12531;&#12508;&#12539;&#25237;&#12370;&#25246;&#12539;&#36215;&#12365;&#25915;&#12417;&#12434;TODO&#30906;&#35469;</text><text fill="#000000" font-family="sans-serif" font-size="12" lengthAdjust="spacing" textLength="24" x="46" y="1482.5508">&#20013;&#38291;</text><text fill="#000000" font-family="sans-serif" font-size="12" lengthAdjust="spacing" textLength="58.0078" x="56" y="1497.6445">&#12498;&#12483;&#12488;&#26178; 0</text><text fill="#000000" font-family="sans-serif" font-size="12" lengthAdjust="spacing" textLength="298.6641" x="56" y="1512.7383">&#20013;&#38291;&#36317;&#38626;&#12498;&#12483;&#12488;&#26178;&#12398;&#36899;&#20418;&#12539;&#12461;&#12515;&#12531;&#12475;&#12523;&#21487;&#21542;&#12434;TODO&#30906;&#35469;</text><text fill="#000000" font-family="sans-serif" font-size="12" lengthAdjust="spacing" textLength="24" x="46" y="1527.832">&#20808;&#31471;</text><text fill="#000000" font-family="sans-serif" font-size="12" lengthAdjust="spacing" textLength="58.0078" x="56" y="1542.9258">&#12498;&#12483;&#12488;&#26178; 0</text><text fill="#000000" font-family="sans-serif" font-size="12" lengthAdjust="spacing" textLength="262.6641" x="56" y="1558.0195">&#20808;&#31471;&#12498;&#12483;&#12488;&#26178;&#12398;&#36861;&#25731;&#21487;&#21542;&#12392;&#36317;&#38626;&#35519;&#25972;&#12434;TODO&#30906;&#35469;</text><rect fill="none" height="2" style="stroke:#888888;stroke-width:1;" width="2" x="9" y="12.5469"/><line style="stroke:#888888;stroke-width:1;" x1="10" x2="10" y1="15.5469" y2="28.6406"/><line style="stroke:#888888;stroke-width:1;" x1="10" x2="18" y1="28.6406" y2="28.6406"/><line style="stroke:#888888;stroke-width:1;" x1="10" x2="10" y1="15.5469" y2="43.7344"/><line style="stroke:#888888;stroke-width:1;" x1="10" x2="18" y1="43.7344" y2="43.7344"/><rect fill="none" height="2" style="stroke:#888888;stroke-width:1;" width="2" x="19" y="57.8281"/><line style="stroke:#888888;stroke-width:1;" x1="10" x2="10" y1="15.5469" y2="58.8281"/><line style="stroke:#888888;stroke-width:1;" x1="10" x2="18" y1="58.8281" y2="58.8281"/><line style="stroke:#888888;stroke-width:1;" x1="20" x2="20" y1="60.8281" y2="73.9219"/><line style="stroke:#888888;stroke-width:1;" x1="20" x2="28" y1="73.9219" y2="73.9219"/><rect fill="none" height="2" style="stroke:#888888;stroke-width:1;" width="2" x="29" y="88.0156"/><line style="stroke:#888888;stroke-width:1;" x1="20" x2="20" y1="60.8281" y2="89.0156"/><line style="stroke:#888888;stroke-width:1;" x1="20" x2="28" y1="89.0156" y2="89.0156"/><line style="stroke:#888888;stroke-width:1;" x1="30" x2="30" y1="91.0156" y2="104.1094"/><line style="stroke:#888888;stroke-width:1;" x1="30" x2="38" y1="104.1094" y2="104.1094"/><line style="stroke:#888888;stroke-width:1;" x1="30" x2="30" y1="91.0156" y2="119.2031"/><line style="stroke:#888888;stroke-width:1;" x1="30" x2="38" y1="119.2031" y2="119.2031"/><rect fill="none" height="2" style="stroke:#888888;stroke-width:1;" width="2" x="29" y="133.2969"/><line style="stroke:#888888;stroke-width:1;" x1="20" x2="20" y1="60.8281" y2="134.2969"/><line style="stroke:#888888;stroke-width:1;" x1="20" x2="28" y1="134.2969" y2="134.2969"/><rect fill="none" height="2" style="stroke:#888888;stroke-width:1;" width="2" x="39" y="148.3906"/><line style="stroke:#888888;stroke-width:1;" x1="30" x2="30" y1="136.2969" y2="149.3906"/><line style="stroke:#888888;stroke-width:1;" x1="30" x2="38" y1="149.3906" y2="149.3906"/><line style="stroke:#888888;stroke-width:1;" x1="40" x2="40" y1="151.3906" y2="164.4844"/><line style="stroke:#888888;stroke-width:1;" x1="40" x2="48" y1="164.4844" y2="164.4844"/><line style="stroke:#888888;stroke-width:1;" x1="40" x2="40" y1="151.3906" y2="179.5781"/><line style="stroke:#888888;stroke-width:1;" x1="40" x2="48" y1="179.5781" y2="179.5781"/><rect fill="none" height="2" style="stroke:#888888;stroke-width:1;" width="2" x="39" y="193.6719"/><line style="stroke:#888888;stroke-width:1;" x1="30" x2="30" y1="136.2969" y2="194.6719"/><line style="stroke:#888888;stroke-width:1;" x1="30" x2="38" y1="194.6719" y2="194.6719"/><line style="stroke:#888888;stroke-width:1;" x1="40" x2="40" y1="196.6719" y2="209.7656"/><line style="stroke:#888888;stroke-width:1;" x1="40" x2="48" y1="209.7656" y2="209.7656"/><line style="stroke:#888888;stroke-width:1;" x1="40" x2="40" y1="196.6719" y2="224.8594"/><line style="stroke:#888888;stroke-width:1;" x1="40" x2="48" y1="224.8594" y2="224.8594"/><rect fill="none" height="2" style="stroke:#888888;stroke-width:1;" width="2" x="39" y="238.9531"/><line style="stroke:#888888;stroke-width:1;" x1="30" x2="30" y1="136.2969" y2="239.9531"/><line style="stroke:#888888;stroke-width:1;" x1="30" x2="38" y1="239.9531" y2="239.9531"/><line style="stroke:#888888;stroke-width:1;" x1="40" x2="40" y1="241.9531" y2="255.0469"/><line style="stroke:#888888;stroke-width:1;" x1="40" x2="48" y1="255.0469" y2="255.0469"/><line style="stroke:#888888;stroke-width:1;" x1="40" x2="40" y1="241.9531" y2="270.1406"/><line style="stroke:#888888;stroke-width:1;" x1="40" x2="48" y1="270.1406" y2="270.1406"/><rect fill="none" height="2" style="stroke:#888888;stroke-width:1;" width="2" x="29" y="284.2344"/><line style="stroke:#888888;stroke-width:1;" x1="20" x2="20" y1="60.8281" y2="285.2344"/><line style="stroke:#888888;stroke-width:1;" x1="20" x2="28" y1="285.2344" y2="285.2344"/><rect fill="none" height="2" style="stroke:#888888;stroke-width:1;" width="2" x="39" y="299.3281"/><line style="stroke:#888888;stroke-width:1;" x1="30" x2="30" y1="287.2344" y2="300.3281"/><line style="stroke:#888888;stroke-width:1;" x1="30" x2="38" y1="300.3281" y2="300.3281"/><line style="stroke:#888888;stroke-width:1;" x1="40" x2="40" y1="302.3281" y2="315.4219"/><line style="stroke:#888888;stroke-width:1;" x1="40" x2="48" y1="315.4219" y2="315.4219"/><line style="stroke:#888888;stroke-width:1;" x1="40" x2="40" y1="302.3281" y2="330.5156"/><line style="stroke:#888888;stroke-width:1;" x1="40" x2="48" y1="330.5156" y2="330.5156"/><rect fill="none" height="2" style="stroke:#888888;stroke-width:1;" width="2" x="39" y="344.6094"/><line style="stroke:#888888;stroke-width:1;" x1="30" x2="30" y1="287.2344" y2="345.6094"/><line style="stroke:#888888;stroke-width:1;" x1="30" x2="38" y1="345.6094" y2="345.6094"/><line style="stroke:#888888;stroke-width:1;" x1="40" x2="40" y1="347.6094" y2="360.7031"/><line style="stroke:#888888;stroke-width:1;" x1="40" x2="48" y1="360.7031" y2="360.7031"/><line style="stroke:#888888;stroke-width:1;" x1="40" x2="40" y1="347.6094" y2="375.7969"/><line style="stroke:#888888;stroke-width:1;" x1="40" x2="48" y1="375.7969" y2="375.7969"/><rect fill="none" height="2" style="stroke:#888888;stroke-width:1;" width="2" x="39" y="389.8906"/><line style="stroke:#888888;stroke-width:1;" x1="30" x2="30" y1="287.2344" y2="390.8906"/><line style="stroke:#888888;stroke-width:1;" x1="30" x2="38" y1="390.8906" y2="390.8906"/><line style="stroke:#888888;stroke-width:1;" x1="40" x2="40" y1="392.8906" y2="405.9844"/><line style="stroke:#888888;stroke-width:1;" x1="40" x2="48" y1="405.9844" y2="405.9844"/><line style="stroke:#888888;stroke-width:1;" x1="40" x2="40" y1="392.8906" y2="421.0781"/><line style="stroke:#888888;stroke-width:1;" x1="40" x2="48" y1="421.0781" y2="421.0781"/><rect fill="none" height="2" style="stroke:#888888;stroke-width:1;" width="2" x="19" y="435.1719"/><line style="stroke:#888888;stroke-width:1;" x1="10" x2="10" y1="15.5469" y2="436.1719"/><line style="stroke:#888888;stroke-width:1;" x1="10" x2="18" y1="436.1719" y2="436.1719"/><line style="stroke:#888888;stroke-width:1;" x1="20" x2="20" y1="438.1719" y2="451.2656"/><line style="stroke:#888888;stroke-width:1;" x1="20" x2="28" y1="451.2656" y2="451.2656"/><rect fill="none" height="2" style="stroke:#888888;stroke-width:1;" width="2" x="29" y="465.3594"/><line style="stroke:#888888;stroke-width:1;" x1="20" x2="20" y1="438.1719" y2="466.3594"/><line style="stroke:#888888;stroke-width:1;" x1="20" x2="28" y1="466.3594" y2="466.3594"/><line style="stroke:#888888;stroke-width:1;" x1="30" x2="30" y1="468.3594" y2="481.4531"/><line style="stroke:#888888;stroke-width:1;" x1="30" x2="38" y1="481.4531" y2="481.4531"/><line style="stroke:#888888;stroke-width:1;" x1="30" x2="30" y1="468.3594" y2="496.5469"/><line style="stroke:#888888;stroke-width:1;" x1="30" x2="38" y1="496.5469" y2="496.5469"/><rect fill="none" height="2" style="stroke:#888888;stroke-width:1;" width="2" x="29" y="510.6406"/><line style="stroke:#888888;stroke-width:1;" x1="20" x2="20" y1="438.1719" y2="511.6406"/><line style="stroke:#888888;stroke-width:1;" x1="20" x2="28" y1="511.6406" y2="511.6406"/><rect fill="none" height="2" style="stroke:#888888;stroke-width:1;" width="2" x="39" y="525.7344"/><line style="stroke:#888888;stroke-width:1;" x1="30" x2="30" y1="513.6406" y2="526.7344"/><line style="stroke:#888888;stroke-width:1;" x1="30" x2="38" y1="526.7344" y2="526.7344"/><line style="stroke:#888888;stroke-width:1;" x1="40" x2="40" y1="528.7344" y2="541.8281"/><line style="stroke:#888888;stroke-width:1;" x1="40" x2="48" y1="541.8281" y2="541.8281"/><line style="stroke:#888888;stroke-width:1;" x1="40" x2="40" y1="528.7344" y2="556.9219"/><line style="stroke:#888888;stroke-width:1;" x1="40" x2="48" y1="556.9219" y2="556.9219"/><rect fill="none" height="2" style="stroke:#888888;stroke-width:1;" width="2" x="39" y="571.0156"/><line style="stroke:#888888;stroke-width:1;" x1="30" x2="30" y1="513.6406" y2="572.0156"/><line style="stroke:#888888;stroke-width:1;" x1="30" x2="38" y1="572.0156" y2="572.0156"/><line style="stroke:#888888;stroke-width:1;" x1="40" x2="40" y1="574.0156" y2="587.1094"/><line style="stroke:#888888;stroke-width:1;" x1="40" x2="48" y1="587.1094" y2="587.1094"/><line style="stroke:#888888;stroke-width:1;" x1="40" x2="40" y1="574.0156" y2="602.2031"/><line style="stroke:#888888;stroke-width:1;" x1="40" x2="48" y1="602.2031" y2="602.2031"/><rect fill="none" height="2" style="stroke:#888888;stroke-width:1;" width="2" x="39" y="616.2969"/><line style="stroke:#888888;stroke-width:1;" x1="30" x2="30" y1="513.6406" y2="617.2969"/><line style="stroke:#888888;stroke-width:1;" x1="30" x2="38" y1="617.2969" y2="617.2969"/><line style="stroke:#888888;stroke-width:1;" x1="40" x2="40" y1="619.2969" y2="632.3906"/><line style="stroke:#888888;stroke-width:1;" x1="40" x2="48" y1="632.3906" y2="632.3906"/><line style="stroke:#888888;stroke-width:1;" x1="40" x2="40" y1="619.2969" y2="647.4844"/><line style="stroke:#888888;stroke-width:1;" x1="40" x2="48" y1="647.4844" y2="647.4844"/><rect fill="none" height="2" style="stroke:#888888;stroke-width:1;" width="2" x="29" y="661.5781"/><line style="stroke:#888888;stroke-width:1;" x1="20" x2="20" y1="438.1719" y2="662.5781"/><line style="stroke:#888888;stroke-width:1;" x1="20" x2="28" y1="662.5781" y2="662.5781"/><rect fill="none" height="2" style="stroke:#888888;stroke-width:1;" width="2" x="39" y="676.6719"/><line style="stroke:#888888;stroke-width:1;" x1="30" x2="30" y1="664.5781" y2="677.6719"/><line style="stroke:#888888;stroke-width:1;" x1="30" x2="38" y1="677.6719" y2="677.6719"/><line style="stroke:#888888;stroke-width:1;" x1="40" x2="40" y1="679.6719" y2="692.7656"/><line style="stroke:#888888;stroke-width:1;" x1="40" x2="48" y1="692.7656" y2="692.7656"/><line style="stroke:#888888;stroke-width:1;" x1="40" x2="40" y1="679.6719" y2="707.8594"/><line style="stroke:#888888;stroke-width:1;" x1="40" x2="48" y1="707.8594" y2="707.8594"/><rect fill="none" height="2" style="stroke:#888888;stroke-width:1;" width="2" x="39" y="721.9531"/><line style="stroke:#888888;stroke-width:1;" x1="30" x2="30" y1="664.5781" y2="722.9531"/><line style="stroke:#888888;stroke-width:1;" x1="30" x2="38" y1="722.9531" y2="722.9531"/><line style="stroke:#888888;stroke-width:1;" x1="40" x2="40" y1="724.9531" y2="738.0469"/><line style="stroke:#888888;stroke-width:1;" x1="40" x2="48" y1="738.0469" y2="738.0469"/><line style="stroke:#888888;stroke-width:1;" x1="40" x2="40" y1="724.9531" y2="753.1406"/><line style="stroke:#888888;stroke-width:1;" x1="40" x2="48" y1="753.1406" y2="753.1406"/><rect fill="none" height="2" style="stroke:#888888;stroke-width:1;" width="2" x="39" y="767.2344"/><line style="stroke:#888888;stroke-width:1;" x1="30" x2="30" y1="664.5781" y2="768.2344"/><line style="stroke:#888888;stroke-width:1;" x1="30" x2="38" y1="768.2344" y2="768.2344"/><line style="stroke:#888888;stroke-width:1;" x1="40" x2="40" y1="770.2344" y2="783.3281"/><line style="stroke:#888888;stroke-width:1;" x1="40" x2="48" y1="783.3281" y2="783.3281"/><line style="stroke:#888888;stroke-width:1;" x1="40" x2="40" y1="770.2344" y2="798.4219"/><line style="stroke:#888888;stroke-width:1;" x1="40" x2="48" y1="798.4219" y2="798.4219"/><rect fill="none" height="2" style="stroke:#888888;stroke-width:1;" width="2" x="19" y="812.5156"/><line style="stroke:#888888;stroke-width:1;" x1="10" x2="10" y1="15.5469" y2="813.5156"/><line style="stroke:#888888;stroke-width:1;" x1="10" x2="18" y1="813.5156" y2="813.5156"/><line style="stroke:#888888;stroke-width:1;" x1="20" x2="20" y1="815.5156" y2="828.6094"/><line style="stroke:#888888;stroke-width:1;" x1="20" x2="28" y1="828.6094" y2="828.6094"/><rect fill="none" height="2" style="stroke:#888888;stroke-width:1;" width="2" x="29" y="842.7031"/><line style="stroke:#888888;stroke-width:1;" x1="20" x2="20" y1="815.5156" y2="843.7031"/><line style="stroke:#888888;stroke-width:1;" x1="20" x2="28" y1="843.7031" y2="843.7031"/><line style="stroke:#888888;stroke-width:1;" x1="30" x2="30" y1="845.7031" y2="858.7969"/><line style="stroke:#888888;stroke-width:1;" x1="30" x2="38" y1="858.7969" y2="858.7969"/><line style="stroke:#888888;stroke-width:1;" x1="30" x2="30" y1="845.7031" y2="873.8906"/><line style="stroke:#888888;stroke-width:1;" x1="30" x2="38" y1="873.8906" y2="873.8906"/><rect fill="none" height="2" style="stroke:#888888;stroke-width:1;" width="2" x="29" y="887.9844"/><line style="stroke:#888888;stroke-width:1;" x1="20" x2="20" y1="815.5156" y2="888.9844"/><line style="stroke:#888888;stroke-width:1;" x1="20" x2="28" y1="888.9844" y2="888.9844"/><rect fill="none" height="2" style="stroke:#888888;stroke-width:1;" width="2" x="39" y="903.0781"/><line style="stroke:#888888;stroke-width:1;" x1="30" x2="30" y1="890.9844" y2="904.0781"/><line style="stroke:#888888;stroke-width:1;" x1="30" x2="38" y1="904.0781" y2="904.0781"/><line style="stroke:#888888;stroke-width:1;" x1="40" x2="40" y1="906.0781" y2="919.1719"/><line style="stroke:#888888;stroke-width:1;" x1="40" x2="48" y1="919.1719" y2="919.1719"/><line style="stroke:#888888;stroke-width:1;" x1="40" x2="40" y1="906.0781" y2="934.2656"/><line style="stroke:#888888;stroke-width:1;" x1="40" x2="48" y1="934.2656" y2="934.2656"/><rect fill="none" height="2" style="stroke:#888888;stroke-width:1;" width="2" x="39" y="948.3594"/><line style="stroke:#888888;stroke-width:1;" x1="30" x2="30" y1="890.9844" y2="949.3594"/><line style="stroke:#888888;stroke-width:1;" x1="30" x2="38" y1="949.3594" y2="949.3594"/><line style="stroke:#888888;stroke-width:1;" x1="40" x2="40" y1="951.3594" y2="964.4531"/><line style="stroke:#888888;stroke-width:1;" x1="40" x2="48" y1="964.4531" y2="964.4531"/><line style="stroke:#888888;stroke-width:1;" x1="40" x2="40" y1="951.3594" y2="979.5469"/><line style="stroke:#888888;stroke-width:1;" x1="40" x2="48" y1="979.5469" y2="979.5469"/><rect fill="none" height="2" style="stroke:#888888;stroke-width:1;" width="2" x="39" y="993.6406"/><line style="stroke:#888888;stroke-width:1;" x1="30" x2="30" y1="890.9844" y2="994.6406"/><line style="stroke:#888888;stroke-width:1;" x1="30" x2="38" y1="994.6406" y2="994.6406"/><line style="stroke:#888888;stroke-width:1;" x1="40" x2="40" y1="996.6406" y2="1009.7344"/><line style="stroke:#888888;stroke-width:1;" x1="40" x2="48" y1="1009.7344" y2="1009.7344"/><line style="stroke:#888888;stroke-width:1;" x1="40" x2="40" y1="996.6406" y2="1024.8281"/><line style="stroke:#888888;stroke-width:1;" x1="40" x2="48" y1="1024.8281" y2="1024.8281"/><rect fill="none" height="2" style="stroke:#888888;stroke-width:1;" width="2" x="29" y="1038.9219"/><line style="stroke:#888888;stroke-width:1;" x1="20" x2="20" y1="815.5156" y2="1039.9219"/><line style="stroke:#888888;stroke-width:1;" x1="20" x2="28" y1="1039.9219" y2="1039.9219"/><rect fill="none" height="2" style="stroke:#888888;stroke-width:1;" width="2" x="39" y="1054.0156"/><line style="stroke:#888888;stroke-width:1;" x1="30" x2="30" y1="1041.9219" y2="1055.0156"/><line style="stroke:#888888;stroke-width:1;" x1="30" x2="38" y1="1055.0156" y2="1055.0156"/><line style="stroke:#888888;stroke-width:1;" x1="40" x2="40" y1="1057.0156" y2="1070.1094"/><line style="stroke:#888888;stroke-width:1;" x1="40" x2="48" y1="1070.1094" y2="1070.1094"/><line style="stroke:#888888;stroke-width:1;" x1="40" x2="40" y1="1057.0156" y2="1085.2031"/><line style="stroke:#888888;stroke-width:1;" x1="40" x2="48" y1="1085.2031" y2="1085.2031"/><rect fill="none" height="2" style="stroke:#888888;stroke-width:1;" width="2" x="39" y="1099.2969"/><line style="stroke:#888888;stroke-width:1;" x1="30" x2="30" y1="1041.9219" y2="1100.2969"/><line style="stroke:#888888;stroke-width:1;" x1="30" x2="38" y1="1100.2969" y2="1100.2969"/><line style="stroke:#888888;stroke-width:1;" x1="40" x2="40" y1="1102.2969" y2="1115.3906"/><line style="stroke:#888888;stroke-width:1;" x1="40" x2="48" y1="1115.3906" y2="1115.3906"/><line style="stroke:#888888;stroke-width:1;" x1="40" x2="40" y1="1102.2969" y2="1130.4844"/><line style="stroke:#888888;stroke-width:1;" x1="40" x2="48" y1="1130.4844" y2="1130.4844"/><rect fill="none" height="2" style="stroke:#888888;stroke-width:1;" width="2" x="39" y="1144.5781"/><line style="stroke:#888888;stroke-width:1;" x1="30" x2="30" y1="1041.9219" y2="1145.5781"/><line style="stroke:#888888;stroke-width:1;" x1="30" x2="38" y1="1145.5781" y2="1145.5781"/><line style="stroke:#888888;stroke-width:1;" x1="40" x2="40" y1="1147.5781" y2="1160.6719"/><line style="stroke:#888888;stroke-width:1;" x1="40" x2="48" y1="1160.6719" y2="1160.6719"/><line style="stroke:#888888;stroke-width:1;" x1="40" x2="40" y1="1147.5781" y2="1175.7656"/><line style="stroke:#888888;stroke-width:1;" x1="40" x2="48" y1="1175.7656" y2="1175.7656"/><rect fill="none" height="2" style="stroke:#888888;stroke-width:1;" width="2" x="19" y="1189.8594"/><line style="stroke:#888888;stroke-width:1;" x1="10" x2="10" y1="15.5469" y2="1190.8594"/><line style="stroke:#888888;stroke-width:1;" x1="10" x2="18" y1="1190.8594" y2="1190.8594"/><line style="stroke:#888888;stroke-width:1;" x1="20" x2="20" y1="1192.8594" y2="1205.9531"/><line style="stroke:#888888;stroke-width:1;" x1="20" x2="28" y1="1205.9531" y2="1205.9531"/><rect fill="none" height="2" style="stroke:#888888;stroke-width:1;" width="2" x="29" y="1220.0469"/><line style="stroke:#888888;stroke-width:1;" x1="20" x2="20" y1="1192.8594" y2="1221.0469"/><line style="stroke:#888888;stroke-width:1;" x1="20" x2="28" y1="1221.0469" y2="1221.0469"/><line style="stroke:#888888;stroke-width:1;" x1="30" x2="30" y1="1223.0469" y2="1236.1406"/><line style="stroke:#888888;stroke-width:1;" x1="30" x2="38" y1="1236.1406" y2="1236.1406"/><line style="stroke:#888888;stroke-width:1;" x1="30" x2="30" y1="1223.0469" y2="1251.2344"/><line style="stroke:#888888;stroke-width:1;" x1="30" x2="38" y1="1251.2344" y2="1251.2344"/><rect fill="none" height="2" style="stroke:#888888;stroke-width:1;" width="2" x="29" y="1265.3281"/><line style="stroke:#888888;stroke-width:1;" x1="20" x2="20" y1="1192.8594" y2="1266.3281"/><line style="stroke:#888888;stroke-width:1;" x1="20" x2="28" y1="1266.3281" y2="1266.3281"/><rect fill="none" height="2" style="stroke:#888888;stroke-width:1;" width="2" x="39" y="1280.4219"/><line style="stroke:#888888;stroke-width:1;" x1="30" x2="30" y1="1268.3281" y2="1281.4219"/><line style="stroke:#888888;stroke-width:1;" x1="30" x2="38" y1="1281.4219" y2="1281.4219"/><line style="stroke:#888888;stroke-width:1;" x1="40" x2="40" y1="1283.4219" y2="1296.5156"/><line style="stroke:#888888;stroke-width:1;" x1="40" x2="48" y1="1296.5156" y2="1296.5156"/><line style="stroke:#888888;stroke-width:1;" x1="40" x2="40" y1="1283.4219" y2="1311.6094"/><line style="stroke:#888888;stroke-width:1;" x1="40" x2="48" y1="1311.6094" y2="1311.6094"/><rect fill="none" height="2" style="stroke:#888888;stroke-width:1;" width="2" x="39" y="1325.7031"/><line style="stroke:#888888;stroke-width:1;" x1="30" x2="30" y1="1268.3281" y2="1326.7031"/><line style="stroke:#888888;stroke-width:1;" x1="30" x2="38" y1="1326.7031" y2="1326.7031"/><line style="stroke:#888888;stroke-width:1;" x1="40" x2="40" y1="1328.7031" y2="1341.7969"/><line style="stroke:#888888;stroke-width:1;" x1="40" x2="48" y1="1341.7969" y2="1341.7969"/><line style="stroke:#888888;stroke-width:1;" x1="40" x2="40" y1="1328.7031" y2="1356.8906"/><line style="stroke:#888888;stroke-width:1;" x1="40" x2="48" y1="1356.8906" y2="1356.8906"/><rect fill="none" height="2" style="stroke:#888888;stroke-width:1;" width="2" x="39" y="1370.9844"/><line style="stroke:#888888;stroke-width:1;" x1="30" x2="30" y1="1268.3281" y2="1371.9844"/><line style="stroke:#888888;stroke-width:1;" x1="30" x2="38" y1="1371.9844" y2="1371.9844"/><line style="stroke:#888888;stroke-width:1;" x1="40" x2="40" y1="1373.9844" y2="1387.0781"/><line style="stroke:#888888;stroke-width:1;" x1="40" x2="48" y1="1387.0781" y2="1387.0781"/><line style="stroke:#888888;stroke-width:1;" x1="40" x2="40" y1="1373.9844" y2="1402.1719"/><line style="stroke:#888888;stroke-width:1;" x1="40" x2="48" y1="1402.1719" y2="1402.1719"/><rect fill="none" height="2" style="stroke:#888888;stroke-width:1;" width="2" x="29" y="1416.2656"/><line style="stroke:#888888;stroke-width:1;" x1="20" x2="20" y1="1192.8594" y2="1417.2656"/><line style="stroke:#888888;stroke-width:1;" x1="20" x2="28" y1="1417.2656" y2="1417.2656"/><rect fill="none" height="2" style="stroke:#888888;stroke-width:1;" width="2" x="39" y="1431.3594"/><line style="stroke:#888888;stroke-width:1;" x1="30" x2="30" y1="1419.2656" y2="1432.3594"/><line style="stroke:#888888;stroke-width:1;" x1="30" x2="38" y1="1432.3594" y2="1432.3594"/><line style="stroke:#888888;stroke-width:1;" x1="40" x2="40" y1="1434.3594" y2="1447.4531"/><line style="stroke:#888888;stroke-width:1;" x1="40" x2="48" y1="1447.4531" y2="1447.4531"/><line style="stroke:#888888;stroke-width:1;" x1="40" x2="40" y1="1434.3594" y2="1462.5469"/><line style="stroke:#888888;stroke-width:1;" x1="40" x2="48" y1="1462.5469" y2="1462.5469"/><rect fill="none" height="2" style="stroke:#888888;stroke-width:1;" width="2" x="39" y="1476.6406"/><line style="stroke:#888888;stroke-width:1;" x1="30" x2="30" y1="1419.2656" y2="1477.6406"/><line style="stroke:#888888;stroke-width:1;" x1="30" x2="38" y1="1477.6406" y2="1477.6406"/><line style="stroke:#888888;stroke-width:1;" x1="40" x2="40" y1="1479.6406" y2="1492.7344"/><line style="stroke:#888888;stroke-width:1;" x1="40" x2="48" y1="1492.7344" y2="1492.7344"/><line style="stroke:#888888;stroke-width:1;" x1="40" x2="40" y1="1479.6406" y2="1507.8281"/><line style="stroke:#888888;stroke-width:1;" x1="40" x2="48" y1="1507.8281" y2="1507.8281"/><rect fill="none" height="2" style="stroke:#888888;stroke-width:1;" width="2" x="39" y="1521.9219"/><line style="stroke:#888888;stroke-width:1;" x1="30" x2="30" y1="1419.2656" y2="1522.9219"/><line style="stroke:#888888;stroke-width:1;" x1="30" x2="38" y1="1522.9219" y2="1522.9219"/><line style="stroke:#888888;stroke-width:1;" x1="40" x2="40" y1="1524.9219" y2="1538.0156"/><line style="stroke:#888888;stroke-width:1;" x1="40" x2="48" y1="1538.0156" y2="1538.0156"/><line style="stroke:#888888;stroke-width:1;" x1="40" x2="40" y1="1524.9219" y2="1553.1094"/><line style="stroke:#888888;stroke-width:1;" x1="40" x2="48" y1="1553.1094" y2="1553.1094"/><?plantuml-src xPTTJnf158Rl-HLpJtPT40nwPHFIs72XIRrlDX5RKxK6zgOnJPWPCKWX62esW1z5Mpz0nKOgYXf-p75dbt_HMHRhWaIJ1fTUD6p8p9up-vvvPv-Sx6XOaKDAM9vL78kEnKc74xrMGi6WWbxEl7sd14De20deXHWGNuce4Scf5nSi7b5ZFu3y17eDv99bAjhgCazIhwiyv70w4T0Cq2CZJB_fXsTQvNG4JScAF22_dtap_o4q9y-6nOzpiqQkcY9QT5-DqX4KdXuIfaFoN52K5nQGMt8F2P9NSFkCDE_O1D9Adm4NkCm4l-D4MhQchMqZbniD89R0sdcEZmMNXq-rmf6Mho2toqmyhB546KZSc775wWdWhtfzZVytrh-egp70Iu0Fs551pMy1FZ6JsVebaFJak7zSswdfnMHhyVTzm4d0HUjJzECz5aitjO2O-ru1d06S1xpTMbTUrZOZpR4bYMK94ZojksQADMRK4kUFIT-NIQzOhW8amMvEkJ2VykBKL99jh6XBXIxrtbuSyyMFwfefUdMpaT_fKDVEiznMDLLML_UuGzOz0otommTIxcPIDAQLoezljfdI8QUUhAZH0xMsPvw6KS0DLqpor-g12d_9qa0fq5WtW-zYXgQhtLzBY0i0EGFAhmt3sQRNBBx5n_glgY6yTWK4FsbhDxKsLzir6v7TsphX8a2EWUuQ-kGAQAdbyrD-TjsRQMUxZbw_OMdwv_JCMlHYdHFRAOBSd2_ZL0a5d01SVq2PPA5C4fhGtL7cUpxA6haiu18xEs1BgR_bozSdldpzuCjdFrz-M_dosygNlrTyUSS2z_qhO2Lh-1wiuJQkNCEzvwfdJMkmJr0DzWEgGVkXyjWAbSTMg3ozQrg1pgOLUAnfUIrDI_gtczP_lfwNBybMlYHR-P9wmjSd_dEC1kUdcj-63fTeV929tjy0?></g></svg>